<svg width="171" height="248" viewBox="0 0 171 248" fill="none" xmlns="http://www.w3.org/2000/svg">
<path d="M116.992 248C115.934 248 115.071 247.142 115.062 246.084C115.058 245.021 115.915 244.15 116.978 244.146C120.084 244.127 123.273 244 126.452 243.758C127.515 243.671 128.441 244.474 128.519 245.537C128.601 246.6 127.802 247.526 126.74 247.603C123.474 247.849 120.194 247.982 116.996 248H116.987H116.992ZM107.381 247.694C107.335 247.694 107.29 247.694 107.244 247.69C103.973 247.462 100.703 247.101 97.5325 246.622C96.4788 246.463 95.7535 245.482 95.9132 244.428C96.0729 243.375 97.0536 242.654 98.1073 242.809C101.177 243.274 104.343 243.621 107.513 243.84C108.576 243.913 109.374 244.834 109.301 245.897C109.228 246.914 108.384 247.69 107.381 247.69V247.694ZM136.159 246.568C135.215 246.568 134.389 245.874 134.252 244.907C134.102 243.854 134.836 242.877 135.89 242.732C138.983 242.294 142.135 241.751 145.25 241.112C146.295 240.902 147.312 241.573 147.526 242.613C147.741 243.657 147.066 244.675 146.026 244.889C142.833 245.541 139.603 246.098 136.433 246.549C136.342 246.563 136.25 246.568 136.159 246.568ZM88.3868 244.807C88.2362 244.807 88.0857 244.789 87.9352 244.752C84.7558 243.99 81.5901 243.078 78.5294 242.047C77.5213 241.705 76.9785 240.615 77.3206 239.607C77.6627 238.599 78.7575 238.056 79.761 238.398C82.7123 239.393 85.7639 240.273 88.8338 241.007C89.8692 241.254 90.5078 242.298 90.257 243.329C90.0426 244.214 89.2534 244.807 88.3822 244.807H88.3868ZM155.003 242.727C154.15 242.727 153.37 242.157 153.142 241.295C152.868 240.264 153.479 239.21 154.51 238.936C157.575 238.12 160.641 237.208 163.619 236.222C164.627 235.889 165.722 236.437 166.055 237.449C166.388 238.462 165.841 239.552 164.828 239.885C161.776 240.893 158.638 241.828 155.5 242.663C155.336 242.709 155.167 242.727 155.003 242.727ZM70.191 238.654C69.931 238.654 69.6619 238.599 69.411 238.485C66.4369 237.162 63.4902 235.684 60.6575 234.092C59.7315 233.572 59.3985 232.395 59.9231 231.469C60.4431 230.543 61.62 230.21 62.546 230.735C65.2783 232.267 68.111 233.691 70.9756 234.963C71.9472 235.397 72.3851 236.537 71.9517 237.509C71.6324 238.225 70.9254 238.654 70.191 238.654ZM53.4458 229.248C53.0672 229.248 52.6886 229.138 52.3511 228.906L51.9314 228.614C49.4363 226.871 46.9548 224.983 44.5555 222.989C43.7344 222.31 43.625 221.096 44.3046 220.275C44.9843 219.454 46.1976 219.345 47.0187 220.024C49.3359 221.949 51.7307 223.774 54.1392 225.457L54.5406 225.735C55.4164 226.342 55.6353 227.542 55.0332 228.418C54.6592 228.96 54.0571 229.252 53.4458 229.252V229.248ZM38.6438 216.987C38.1557 216.987 37.6722 216.804 37.2936 216.435C34.9946 214.181 32.7367 211.791 30.5837 209.332C29.8812 208.53 29.9633 207.312 30.7661 206.614C31.569 205.911 32.7869 205.993 33.4848 206.796C35.5694 209.182 37.7589 211.499 39.9895 213.684C40.7512 214.428 40.7649 215.65 40.0168 216.412C39.6382 216.799 39.141 216.991 38.6393 216.991L38.6438 216.987ZM25.9857 202.518C25.3973 202.518 24.8225 202.253 24.4439 201.747C22.5007 199.156 20.6305 196.46 18.8789 193.728C18.3042 192.829 18.5642 191.638 19.4628 191.064C20.3568 190.489 21.552 190.749 22.1267 191.647C23.8236 194.298 25.6436 196.916 27.5275 199.434C28.1661 200.287 27.9928 201.496 27.1398 202.134C26.7931 202.394 26.3871 202.518 25.9857 202.518ZM15.6175 186.333C14.9332 186.333 14.2673 185.968 13.9206 185.321C12.3697 182.452 10.9191 179.505 9.60544 176.567C9.1721 175.596 9.60544 174.455 10.5816 174.022C11.5532 173.589 12.6936 174.022 13.1269 174.998C14.3996 177.849 15.8045 180.705 17.3098 183.492C17.8161 184.427 17.4694 185.599 16.5298 186.105C16.2378 186.265 15.9231 186.338 15.6129 186.338L15.6175 186.333ZM7.79909 168.785C7.00539 168.785 6.26187 168.293 5.98362 167.499C4.88431 164.397 3.92183 161.25 3.11445 158.148C2.84533 157.117 3.46569 156.063 4.49658 155.799C5.52748 155.53 6.58118 156.15 6.84574 157.181C7.62576 160.178 8.5563 163.216 9.61912 166.217C9.97492 167.221 9.45035 168.32 8.44226 168.676C8.22787 168.749 8.01348 168.785 7.79909 168.785ZM2.98673 150.184C2.05619 150.184 1.23968 149.509 1.08459 148.564C0.550901 145.289 0.190544 142.005 0.00808486 138.812C-0.0512144 137.749 0.760729 136.837 1.82355 136.777C2.88182 136.723 3.79867 137.53 3.85797 138.593C4.03131 141.654 4.38254 144.806 4.89343 147.949C5.0622 148.998 4.35061 149.988 3.30147 150.161C3.19656 150.179 3.09164 150.188 2.99129 150.188L2.98673 150.184ZM71.0212 148.117C70.4054 148.117 69.7805 148.108 69.1692 148.085C68.1064 148.049 67.2717 147.155 67.3127 146.092C67.3492 145.029 68.2478 144.185 69.3061 144.235C69.8763 144.254 70.451 144.267 71.0258 144.267H71.044C73.5255 144.267 76.048 144.08 78.5522 143.715C79.6013 143.56 80.5821 144.29 80.7372 145.344C80.8922 146.398 80.1624 147.374 79.1087 147.529C76.422 147.921 73.7079 148.122 71.044 148.122H71.0258L71.0212 148.117ZM59.727 146.79C59.5765 146.79 59.4214 146.772 59.2663 146.735L58.9835 146.667C55.8315 145.864 52.7662 144.701 49.8651 143.209C48.9163 142.721 48.5468 141.558 49.0349 140.614C49.5229 139.665 50.6861 139.295 51.6303 139.783C54.2714 141.143 57.0676 142.201 59.9368 142.931L60.1877 142.995C61.2231 143.25 61.8526 144.295 61.6017 145.326C61.3874 146.206 60.5982 146.794 59.7315 146.794L59.727 146.79ZM88.1769 145.335C87.3695 145.335 86.6169 144.824 86.3478 144.017C86.0102 143.008 86.5576 141.914 87.5703 141.581C90.558 140.586 93.4044 139.336 96.0272 137.863C96.9532 137.343 98.1301 137.672 98.6501 138.598C99.1701 139.523 98.8417 140.7 97.9157 141.22C95.0784 142.817 92.004 144.167 88.7836 145.234C88.5829 145.303 88.3776 145.335 88.1769 145.335ZM42.7446 138.119C42.3112 138.119 41.8779 137.973 41.5175 137.676C39.0407 135.623 36.6687 133.256 34.4746 130.633C33.7904 129.817 33.8999 128.599 34.7164 127.919C35.5329 127.235 36.7508 127.344 37.4305 128.161C39.474 130.606 41.6772 132.804 43.9716 134.707C44.7927 135.386 44.9067 136.6 44.2271 137.421C43.8439 137.881 43.2965 138.119 42.74 138.119H42.7446ZM104.781 135.888C104.256 135.888 103.732 135.674 103.353 135.254C102.637 134.465 102.701 133.247 103.49 132.531C105.807 130.432 107.782 128.111 109.36 125.62C109.931 124.721 111.121 124.457 112.02 125.027C112.918 125.597 113.183 126.788 112.613 127.686C110.847 130.469 108.649 133.06 106.076 135.386C105.707 135.719 105.246 135.883 104.785 135.883L104.781 135.888ZM1.92847 131.016C1.89198 131.016 1.85092 131.016 1.81443 131.016C0.751606 130.952 -0.0603374 130.04 0.00352327 128.977C0.199667 125.643 0.6102 122.354 1.21688 119.193C1.41758 118.148 2.42567 117.464 3.47481 117.665C4.51939 117.866 5.20361 118.874 5.0029 119.923C4.42816 122.92 4.04043 126.044 3.85341 129.21C3.79411 130.232 2.94112 131.025 1.93303 131.025L1.92847 131.016ZM30.3784 123.49C29.7261 123.49 29.0921 123.161 28.7272 122.559C27.0349 119.768 25.5113 116.816 24.1885 113.778C23.7643 112.802 24.2113 111.667 25.1875 111.242C26.1636 110.818 27.2994 111.265 27.7236 112.241C28.978 115.12 30.424 117.916 32.0251 120.561C32.577 121.474 32.2851 122.655 31.3774 123.207C31.0672 123.394 30.7205 123.485 30.3784 123.485V123.49ZM114.866 119.827C114.697 119.827 114.529 119.804 114.355 119.759C113.329 119.476 112.722 118.418 113.005 117.391C113.698 114.846 114.054 112.214 114.054 109.564C114.054 109.19 114.045 108.82 114.036 108.451C113.999 107.388 114.83 106.494 115.892 106.453C116.964 106.416 117.849 107.246 117.89 108.309C117.904 108.724 117.913 109.144 117.913 109.564C117.913 112.556 117.516 115.535 116.732 118.408C116.499 119.266 115.719 119.827 114.875 119.827H114.866ZM5.58677 112.196C5.37695 112.196 5.16256 112.159 4.95273 112.086C3.9492 111.735 3.41551 110.636 3.76674 109.632C4.8615 106.489 6.19345 103.438 7.73523 100.555C8.23699 99.6151 9.40473 99.2593 10.3444 99.7656C11.2841 100.267 11.6353 101.435 11.1335 102.375C9.68754 105.08 8.43314 107.949 7.40681 110.905C7.12855 111.698 6.38503 112.2 5.58677 112.2V112.196ZM22.7151 105.883C21.8713 105.883 21.0958 105.322 20.8586 104.469C19.9919 101.335 19.3442 98.0687 18.9337 94.7708C18.8014 93.7125 19.5495 92.7501 20.6077 92.6178C21.666 92.4855 22.6285 93.2336 22.7607 94.2918C23.1485 97.4073 23.7597 100.486 24.5762 103.442C24.859 104.469 24.2569 105.531 23.2306 105.814C23.0572 105.86 22.8839 105.883 22.7151 105.883ZM114.282 100.874C113.466 100.874 112.704 100.349 112.444 99.5284C111.555 96.7185 110.291 93.9041 108.69 91.1627C108.152 90.2412 108.466 89.0644 109.383 88.5261C110.305 87.9924 111.482 88.3026 112.02 89.2195C113.762 92.2073 115.14 95.2817 116.116 98.3607C116.44 99.3733 115.874 100.459 114.862 100.783C114.67 100.842 114.469 100.874 114.278 100.874H114.282ZM14.5957 95.2817C14.1988 95.2817 13.7974 95.1585 13.4508 94.9031C12.5932 94.269 12.4153 93.0602 13.0494 92.2072C14.7143 89.9584 16.548 87.7507 18.5094 85.625C18.4228 85.4061 18.3772 85.1643 18.3817 84.9134C18.4137 81.6976 18.6463 78.3951 19.0796 75.0926C19.2165 74.0389 20.1881 73.2953 21.2418 73.4322C22.2955 73.569 23.039 74.5406 22.9022 75.5943C22.5007 78.6642 22.2772 81.7341 22.2362 84.7219C22.8976 85.4654 22.8885 86.6012 22.1906 87.3356C20.0011 89.63 17.9666 92.043 16.1466 94.5017C15.768 95.0126 15.1841 95.2817 14.5957 95.2817ZM104.762 84.3068C104.22 84.3068 103.681 84.0787 103.298 83.6362C101.3 81.3099 99.0697 79.1158 96.675 77.1133C95.8585 76.4291 95.749 75.2157 96.4332 74.3992C97.1174 73.5827 98.3308 73.4733 99.1473 74.1575C101.706 76.2968 104.083 78.6414 106.222 81.1274C106.915 81.9348 106.824 83.1527 106.017 83.846C105.652 84.1608 105.205 84.3113 104.762 84.3113V84.3068ZM27.8286 81.3783C27.272 81.3783 26.7247 81.1411 26.3415 80.6804C25.6618 79.8593 25.7759 78.646 26.597 77.9663C29.1468 75.8589 31.8198 73.902 34.5476 72.1504C35.4417 71.5757 36.6368 71.8357 37.2115 72.7343C37.7863 73.6283 37.5263 74.8234 36.6322 75.3982C34.0367 77.0631 31.4869 78.9288 29.0601 80.9404C28.6998 81.2369 28.2665 81.3829 27.8331 81.3829L27.8286 81.3783ZM90.0608 72.0136C89.7278 72.0136 89.3948 71.9269 89.0847 71.749C86.3204 70.1251 83.506 68.8069 80.7235 67.8307C79.7199 67.4795 79.1908 66.3801 79.542 65.3766C79.8933 64.3731 80.9926 63.844 81.9961 64.1952C85.0158 65.2535 88.0538 66.6766 91.0324 68.4283C91.9493 68.9665 92.2549 70.1479 91.7166 71.0648C91.3563 71.676 90.7131 72.0136 90.0517 72.0136H90.0608ZM44.0036 71.0465C43.2783 71.0465 42.5849 70.636 42.2565 69.9335C41.8049 68.9711 42.2246 67.8216 43.187 67.37C46.2524 65.9377 49.3679 64.7608 52.4514 63.8622C53.4732 63.5657 54.5451 64.1541 54.8416 65.1759C55.1381 66.1977 54.5497 67.2696 53.5279 67.5661C50.6359 68.4055 47.7075 69.5139 44.8201 70.8641C44.5555 70.9872 44.2772 71.0465 44.0036 71.0465ZM22.7653 67.8216C22.6148 67.8216 22.4597 67.8033 22.3092 67.7668C21.2737 67.516 20.6397 66.4714 20.8951 65.4359C21.6569 62.3159 22.5965 59.1548 23.6958 56.0393C24.0471 55.0358 25.151 54.5066 26.1545 54.8624C27.158 55.2137 27.6871 56.3175 27.3313 57.321C26.2776 60.3179 25.3745 63.3559 24.6401 66.3528C24.4257 67.2332 23.6365 67.8261 22.7699 67.8261L22.7653 67.8216ZM72.0065 65.8145C71.9335 65.8145 71.8651 65.8145 71.7921 65.8008C68.8089 65.4724 65.7116 65.4633 62.6007 65.778C61.547 65.8829 60.5982 65.1121 60.4887 64.0538C60.3838 62.9955 61.1547 62.0513 62.213 61.9418C65.5976 61.5997 68.9685 61.6088 72.2163 61.9692C73.2746 62.0878 74.0363 63.0366 73.9223 64.0948C73.8128 65.0801 72.9781 65.81 72.011 65.81L72.0065 65.8145ZM29.1149 49.6943C28.8458 49.6943 28.5721 49.6395 28.3121 49.5164C27.345 49.0739 26.9208 47.929 27.3633 46.9619C28.7135 44.0198 30.2188 41.0913 31.8335 38.2586C32.3627 37.3326 33.5395 37.0133 34.4609 37.5379C35.3869 38.067 35.7062 39.2439 35.1817 40.1653C33.6216 42.9022 32.1665 45.7303 30.8665 48.5676C30.5426 49.2746 29.8447 49.6897 29.1149 49.6897V49.6943ZM38.6347 33.0038C38.2561 33.0038 37.8729 32.8943 37.5399 32.6617C36.6641 32.055 36.4497 30.8554 37.0519 29.9795C38.9221 27.2792 40.92 24.6563 42.9863 22.1931C43.6706 21.3766 44.8839 21.2717 45.7004 21.9559C46.5169 22.6401 46.6218 23.8535 45.9376 24.67C43.9443 27.0465 42.0193 29.5736 40.213 32.1782C39.8389 32.7164 39.2368 33.0084 38.6256 33.0084L38.6347 33.0038ZM50.9963 18.2976C50.4945 18.2976 49.9928 18.1015 49.6187 17.7183C48.8752 16.9565 48.8889 15.7386 49.6507 14.9905C49.9015 14.7442 50.157 14.4979 50.4124 14.2561C52.5107 12.2536 54.7413 10.3241 57.0403 8.52234C57.8796 7.86549 59.0884 8.01146 59.7452 8.85077C60.4021 9.69008 60.2561 10.8989 59.4168 11.5557C57.2136 13.2845 55.0788 15.1319 53.0672 17.0478C52.8255 17.2804 52.5791 17.513 52.3374 17.7502C51.9633 18.1151 51.4753 18.2976 50.9917 18.2976H50.9963ZM66.0994 6.44231C65.4562 6.44231 64.8313 6.12301 64.4664 5.53914C63.9007 4.63597 64.1744 3.44998 65.0776 2.88436C67.819 1.16468 70.7019 -0.440962 73.6441 -1.89607C74.5974 -2.36591 75.756 -1.97362 76.2259 -1.02027C76.6957 -0.0669212 76.3034 1.0917 75.35 1.56153C72.5219 2.95734 69.7577 4.49912 67.1257 6.15038C66.8064 6.35108 66.4552 6.44687 66.1039 6.44687L66.0994 6.44231ZM168.153 -1.34413C167.944 -1.34413 167.729 -1.38063 167.515 -1.45361C164.527 -2.49819 161.48 -3.45154 158.46 -4.28629C157.434 -4.5691 156.832 -5.63193 157.115 -6.65826C157.397 -7.68459 158.46 -8.28671 159.487 -8.00389C162.593 -7.14634 165.722 -6.16562 168.787 -5.09367C169.791 -4.74244 170.32 -3.64312 169.969 -2.6396C169.691 -1.8459 168.947 -1.3487 168.149 -1.3487L168.153 -1.34413ZM83.3098 -2.07397C82.5298 -2.07397 81.8 -2.54836 81.508 -3.31925C81.1294 -4.31366 81.6312 -5.42666 82.6302 -5.80526C85.6453 -6.94563 88.779 -7.9674 91.9401 -8.84321C92.9665 -9.12602 94.0293 -8.5239 94.3121 -7.49757C94.5949 -6.47124 93.9928 -5.40841 92.9665 -5.1256C89.9194 -4.28173 86.8997 -3.29645 83.994 -2.19713C83.7705 -2.11047 83.5379 -2.07397 83.3098 -2.07397ZM149.625 -6.46212C149.497 -6.46212 149.369 -6.4758 149.237 -6.50317C146.135 -7.13265 142.992 -7.66178 139.886 -8.06776C138.832 -8.2046 138.089 -9.17163 138.225 -10.2299C138.362 -11.2836 139.329 -12.0317 140.388 -11.8903C143.581 -11.4752 146.819 -10.9324 150.008 -10.2846C151.052 -10.0702 151.723 -9.05303 151.513 -8.01302C151.326 -7.10072 150.523 -6.47124 149.625 -6.47124V-6.46212ZM101.816 -7.2102C100.903 -7.2102 100.096 -7.85793 99.9227 -8.78847C99.7312 -9.83761 100.42 -10.8411 101.469 -11.0327C104.639 -11.6166 107.896 -12.0773 111.149 -12.4012C112.207 -12.5106 113.151 -11.7352 113.256 -10.6724C113.361 -9.6141 112.59 -8.66987 111.527 -8.56496C108.38 -8.25022 105.228 -7.80775 102.162 -7.24213C102.044 -7.21932 101.925 -7.2102 101.811 -7.2102H101.816ZM130.562 -8.94356C130.526 -8.94356 130.489 -8.94356 130.453 -8.94356C127.287 -9.12146 124.103 -9.18075 120.979 -9.12146C119.893 -9.11233 119.035 -9.94708 119.013 -11.0099C118.99 -12.0727 119.838 -12.9531 120.901 -12.9759C124.121 -13.0398 127.401 -12.9759 130.667 -12.7934C131.73 -12.7341 132.542 -11.8219 132.483 -10.759C132.423 -9.7327 131.575 -8.939 130.562 -8.939V-8.94356Z" fill="#FF80AA"/>
</svg>
