<svg width="81" height="58" viewBox="0 0 81 58" fill="none" xmlns="http://www.w3.org/2000/svg">
<path d="M65.6542 24.2466C66.4637 38.3986 55.2595 50.5059 40.6288 51.2889C25.9982 52.0719 13.4814 41.2342 12.6719 27.0822C11.8624 12.9302 23.0667 0.822931 37.6973 0.0398957C52.328 -0.743139 64.8447 10.0946 65.6542 24.2466Z" fill="#F0E9FF"/>
<path d="M33.0848 57.9471C31.9264 58.1212 30.9853 57.8657 30.2616 57.1808C29.5347 56.4759 28.9485 55.3734 28.503 53.8732C28.0574 52.373 27.6527 50.4902 27.2888 48.2247C26.9249 45.9592 26.7183 44.0364 26.669 42.4563C26.6198 40.8762 26.8325 39.6536 27.3072 38.7885C27.7787 37.9035 28.5937 37.374 29.7521 37.1999C30.7707 37.0468 31.6008 37.2477 32.2422 37.8025C32.9004 38.3345 33.4351 39.1802 33.8464 40.3396C34.2776 41.4959 34.6472 42.9057 34.9553 44.5691C35.2949 44.518 35.6444 44.4655 36.0039 44.4115C36.3634 44.3574 36.7229 44.3034 37.0824 44.2494C37.5019 44.1863 37.9113 44.1248 38.3108 44.0647C38.7302 44.0017 39.1313 43.9516 39.514 43.9144C39.2826 42.2193 39.181 40.759 39.2091 39.5336C39.2373 38.3082 39.4699 37.337 39.9071 36.62C40.3642 35.9 41.102 35.4635 42.1207 35.3104C43.2791 35.1363 44.2218 35.4017 44.9486 36.1065C45.6755 36.8114 46.2633 37.9238 46.7121 39.4439C47.1808 40.961 47.5971 42.8522 47.961 45.1177C48.3249 47.3832 48.5199 49.2976 48.546 50.8608C48.5921 52.421 48.3777 53.6337 47.9031 54.4988C47.4284 55.3639 46.6118 55.8835 45.4534 56.0576C44.0153 56.2737 42.9376 55.8048 42.2204 54.6507C41.5032 53.4967 40.9127 51.7944 40.4489 49.5439C39.9927 49.6328 39.505 49.7163 38.9857 49.7943C38.4664 49.8724 37.9371 49.9519 37.3978 50.033C37.1382 50.072 36.8785 50.111 36.6189 50.15C36.3592 50.1891 36.0996 50.2281 35.8399 50.2671C36.1008 52.5278 36.0621 54.3246 35.724 55.6576C35.4026 56.9678 34.5229 57.7309 33.0848 57.9471Z" fill="#EA184D"/>
<path d="M58.2328 54.198C56.7547 54.4201 55.409 54.256 54.1956 53.7057C52.9989 53.1325 51.9972 52.2451 51.1906 51.0434C50.4007 49.8189 49.8684 48.3521 49.5939 46.643C49.3257 44.9737 49.3747 43.623 49.7408 42.5911C50.1268 41.5562 50.8092 40.9651 51.7879 40.8181C52.4869 40.713 53.037 40.7626 53.438 40.9669C53.859 41.1682 54.1613 41.4586 54.345 41.8381C54.5455 42.1946 54.6808 42.5915 54.751 43.0287C54.8404 43.5852 54.8915 44.1575 54.9041 44.7459C54.9368 45.3312 55.0058 45.9517 55.1111 46.6075C55.2612 47.5416 55.561 48.1986 56.0108 48.5788C56.4773 48.9361 56.9402 49.0802 57.3996 49.0112C57.8989 48.9361 58.2948 48.6629 58.5873 48.1916C58.8966 47.6973 58.9762 46.9832 58.8261 46.0492C58.7208 45.3934 58.5967 44.8116 58.4537 44.304C58.3108 43.7963 58.1867 43.2145 58.0813 42.5587C57.9696 41.8632 58.042 41.2315 58.2986 40.6638C58.5519 40.0762 59.1879 39.7059 60.2065 39.5528C61.1852 39.4057 62.0108 39.7701 62.6834 40.6459C63.3559 41.5217 63.8262 42.7943 64.0944 44.4636C64.3689 46.1727 64.3419 47.7236 64.0133 49.1162C63.6815 50.489 63.0354 51.6241 62.075 52.5215C61.1313 53.396 59.8506 53.9548 58.2328 54.198Z" fill="#EA184D"/>
<path d="M74.9376 51.6873C73.4995 51.9035 72.2592 51.8863 71.2167 51.636C70.171 51.3657 69.2759 50.9508 68.5314 50.391C67.8069 49.8283 67.2026 49.1864 66.7186 48.4654C66.2546 47.7414 65.882 47.0138 65.6009 46.2826C65.3199 45.5515 65.1099 44.8809 64.9709 44.2708C64.852 43.6578 64.7686 43.2022 64.7207 42.9041C64.5739 41.99 64.4706 41.0286 64.4108 40.0199C64.3511 39.0113 64.3561 38.0234 64.4257 37.0564C64.4922 36.0695 64.6445 35.1714 64.8828 34.3622C65.1409 33.55 65.493 32.8764 65.9389 32.3412C66.3847 31.8061 66.9672 31.4845 67.6862 31.3764C68.3254 31.2804 68.9381 31.402 69.5244 31.7413C70.1307 32.0776 70.5041 32.6829 70.6446 33.5573C70.7819 34.4118 70.7777 35.2774 70.6322 36.1541C70.5034 37.0079 70.4677 37.8681 70.5251 38.7346C70.943 38.4072 71.4036 38.1548 71.9069 37.9774C72.407 37.7802 72.9068 37.644 73.4061 37.5689C74.4647 37.4098 75.5232 37.5052 76.5817 37.8549C77.637 38.1847 78.554 38.8 79.3328 39.7005C80.1316 40.5981 80.6554 41.822 80.9044 43.372C81.0992 44.5843 80.9963 45.7904 80.5958 46.9903C80.2154 48.1872 79.5417 49.2145 78.5749 50.0722C77.628 50.9268 76.4156 51.4652 74.9376 51.6873ZM74.0013 47.0045C74.5406 46.9234 74.978 46.6542 75.3136 46.1967C75.666 45.7163 75.7975 45.1979 75.7082 44.6415C75.6188 44.085 75.3308 43.6297 74.8444 43.2754C74.3779 42.9181 73.875 42.78 73.3357 42.861C72.7964 42.9421 72.3606 43.2213 72.0282 43.6986C71.6957 44.176 71.5742 44.6929 71.6636 45.2493C71.753 45.8058 72.0309 46.2626 72.4974 46.6199C72.9607 46.9574 73.462 47.0855 74.0013 47.0045Z" fill="#EA184D"/>
<path d="M7.70725 34.9484C6.31712 35.1573 5.18784 34.8508 4.31941 34.0288C3.44715 33.183 2.7437 31.8599 2.20906 30.0597C1.67442 28.2595 1.18876 26.0001 0.752058 23.2815C0.31536 20.5629 0.0674532 18.2555 0.00833721 16.3594C-0.0507787 14.4633 0.204481 12.9962 0.774116 11.9581C1.33992 10.8961 2.31789 10.2607 3.70801 10.0517C4.93037 9.86801 5.9264 10.1091 6.69611 10.7749C7.48596 11.4133 8.12763 12.4282 8.62111 13.8194C9.13857 15.207 9.58215 16.8988 9.95186 18.8948C10.3593 18.8335 10.7787 18.7705 11.2102 18.7056C11.6416 18.6408 12.073 18.576 12.5044 18.5111C13.0077 18.4355 13.4991 18.3616 13.9784 18.2896C14.4818 18.2139 14.963 18.1538 15.4222 18.1092C15.1446 16.075 15.0226 14.3226 15.0564 12.8522C15.0902 11.3817 15.3694 10.2163 15.894 9.35591C16.4425 8.49193 17.3279 7.96809 18.5503 7.78437C19.9404 7.57544 21.0716 7.89389 21.9439 8.73972C22.8161 9.58555 23.5215 10.9205 24.0599 12.7446C24.6224 14.565 25.122 16.8346 25.5587 19.5532C25.9954 22.2718 26.2294 24.569 26.2607 26.4449C26.316 28.3171 26.0588 29.7723 25.4891 30.8105C24.9195 31.8486 23.9396 32.4721 22.5495 32.681C20.8238 32.9404 19.5307 32.3776 18.67 30.9927C17.8093 29.6079 17.1007 27.5651 16.5442 24.8645C15.9968 24.9712 15.4115 25.0714 14.7883 25.1651C14.1652 25.2587 13.53 25.3542 12.8829 25.4515C12.5713 25.4983 12.2597 25.5451 11.9481 25.5919C11.6366 25.6388 11.325 25.6856 11.0134 25.7324C11.3264 28.4452 11.28 30.6014 10.8742 32.201C10.4886 33.7732 9.43292 34.689 7.70725 34.9484Z" fill="#4C6ABB"/>
<path d="M38.2084 30.4008C36.4108 30.671 34.7734 30.563 33.2961 30.0767C31.839 29.563 30.6293 28.7557 29.667 27.6548C28.7248 26.5264 28.1253 25.1633 27.8687 23.5655C27.6197 22.0154 27.7613 20.5288 28.2936 19.1055C28.8499 17.6786 29.724 16.4726 30.9158 15.4875C32.1316 14.4988 33.6023 13.8748 35.328 13.6155C36.9338 13.3741 38.3637 13.4889 39.6175 13.9599C40.8714 14.4309 41.8784 15.1221 42.6385 16.0337C43.4187 16.9177 43.8969 17.9083 44.0731 19.0052C44.2493 20.1022 44.1433 21.0463 43.7548 21.8373C43.3626 22.6045 42.7897 23.2402 42.0361 23.7442C41.3026 24.2208 40.4901 24.5871 39.5984 24.8433C38.7068 25.0994 37.8358 25.2547 36.9855 25.3092C36.1313 25.3399 35.4012 25.3031 34.7954 25.1988C35.3379 25.8255 35.9538 26.2214 36.643 26.3865C37.3524 26.5241 38.0647 26.5269 38.7799 26.395C39.5153 26.2357 40.173 26.0513 40.753 25.842C41.4692 25.5634 42.0861 25.5074 42.6038 25.6738C43.1214 25.8402 43.4344 26.1839 43.5426 26.705C43.6355 27.1306 43.5487 27.5833 43.2821 28.063C43.0395 28.5391 42.5236 28.9952 41.7346 29.4312C40.9417 29.8435 39.7663 30.1667 38.2084 30.4008ZM34.2022 20.8185C34.5032 21.164 34.8948 21.3861 35.377 21.4845C35.8553 21.5592 36.3184 21.5384 36.7661 21.4223C37.2378 21.3026 37.6122 21.112 37.8893 20.8505C38.1904 20.5855 38.3103 20.2621 38.249 19.8806C38.1839 19.4752 37.9586 19.1427 37.5733 18.8831C37.2081 18.5961 36.6779 18.5048 35.9829 18.6093C35.3118 18.7101 34.8309 19.0022 34.5404 19.4855C34.246 19.9449 34.1333 20.3893 34.2022 20.8185Z" fill="#4C6ABB"/>
<path d="M53.1007 28.1626C51.9263 28.3391 50.819 28.3223 49.7789 28.1123C48.7627 27.8987 47.9096 27.4774 47.2194 26.8484C46.5255 26.1956 46.0885 25.3088 45.9084 24.188C45.7552 23.2341 45.9126 22.38 46.3805 21.6259C46.8485 20.8717 47.5331 20.2437 48.4343 19.7419C49.3596 19.2365 50.4094 18.8955 51.5838 18.719C52.2789 18.6146 52.9236 18.5787 53.518 18.6115C54.1085 18.6204 54.5231 18.6802 54.7618 18.7909C54.6737 18.2424 54.3694 17.7997 53.8489 17.4627C53.3246 17.1019 52.4992 17.0062 51.3727 17.1755C50.8454 17.2547 50.4336 17.3655 50.1373 17.5077C49.8612 17.6224 49.6129 17.7575 49.3924 17.9127C49.1719 18.068 48.9135 18.2167 48.6172 18.3589C48.3411 18.4737 47.9514 18.5689 47.448 18.6446C46.705 18.7562 46.0752 18.6555 45.5585 18.3424C45.062 18.0018 44.7486 17.4261 44.6184 16.6153C44.4996 15.8761 44.6018 15.2135 44.925 14.6276C45.2683 14.0143 45.7468 13.4783 46.3604 13.0197C46.974 12.5612 47.6509 12.1908 48.3911 11.9086C49.1552 11.6228 49.8968 11.4258 50.6158 11.3178C52.7489 10.9972 54.5498 11.1295 56.0184 11.7147C57.4832 12.2761 58.6387 13.1282 59.4851 14.271C60.3314 15.4138 60.8714 16.7126 61.1051 18.1673C61.2353 18.9781 61.2841 19.7401 61.2514 20.4533C61.2426 21.1628 61.161 21.7246 61.0066 22.1386C61.3881 22.3743 61.6934 22.6704 61.9225 23.0267C62.1755 23.3795 62.3346 23.7585 62.3997 24.1639C62.507 24.8317 62.375 25.4621 62.0039 26.0552C61.653 26.6208 61.07 26.9648 60.2551 27.0873C59.6319 27.181 59.1253 27.1594 58.7351 27.0227C58.345 26.8859 57.9452 26.6896 57.5359 26.4336C57.0143 26.8539 56.4213 27.2117 55.7569 27.5069C55.0886 27.7783 54.2033 27.9969 53.1007 28.1626ZM53.2394 24.4416C53.7907 24.3588 54.1809 24.1902 54.4101 23.936C54.6594 23.6543 54.761 23.3704 54.7151 23.0842C54.6691 22.798 54.4851 22.5692 54.163 22.3978C53.861 22.199 53.4344 22.141 52.8832 22.2238C52.3559 22.3031 51.9676 22.4836 51.7183 22.7653C51.4651 23.0231 51.3616 23.2951 51.4075 23.5813C51.4535 23.8675 51.6394 24.1082 51.9654 24.3034C52.2875 24.4748 52.7121 24.5209 53.2394 24.4416Z" fill="#4C6ABB"/>
<path d="M74.2029 24.991C73.364 25.1171 72.4864 25.0781 71.5699 24.8739C70.6534 24.6697 69.796 24.2979 68.9975 23.7585C68.2229 23.2155 67.6071 22.5143 67.15 21.6549C66.8385 21.0911 66.5639 20.3753 66.3263 19.5073C66.0887 18.6394 65.8655 17.7082 65.6567 16.7138C65.4718 15.7159 65.3028 14.7399 65.1496 13.786C64.211 13.9027 63.2988 13.9543 62.413 13.9409C61.5511 13.9239 60.8139 13.766 60.2014 13.4673C59.609 13.1412 59.2515 12.5965 59.1289 11.8334C58.9795 10.9034 59.1201 10.174 59.5506 9.64521C59.9773 9.09262 60.5986 8.68174 61.4145 8.41258C62.2505 8.11597 63.1699 7.88009 64.1728 7.70495C64.078 6.96208 64.0172 6.20188 63.9905 5.42435C63.9839 4.61938 64.0588 3.86322 64.2152 3.15587C64.3716 2.44852 64.6569 1.85612 65.0712 1.37867C65.4816 0.87737 66.0702 0.569085 66.8372 0.453814C67.8678 0.298918 68.6625 0.509188 69.2214 1.08462C69.8041 1.65646 70.2378 2.44609 70.5224 3.45351C70.8069 4.46094 71.0272 5.52687 71.1833 6.65129C72.4258 6.44013 73.536 6.32212 74.5138 6.29727C75.4917 6.27242 76.2888 6.42127 76.9052 6.74382C77.5216 7.06638 77.9006 7.66883 78.0424 8.55118C78.1879 9.45738 77.9855 10.1839 77.4352 10.7306C76.8848 11.2774 76.1197 11.7099 75.1398 12.0281C74.1562 12.3225 73.103 12.5662 71.9804 12.7594C72.0532 13.2125 72.1178 13.6912 72.1743 14.1956C72.2509 14.6726 72.3294 15.1615 72.4098 15.6622C72.6282 17.0215 72.8792 17.973 73.1629 18.5165C73.3756 18.9241 73.6114 19.1695 73.8703 19.2528C74.1531 19.3324 74.4881 19.3553 74.8754 19.3215C75.2589 19.2639 75.7378 19.2652 76.312 19.3254C76.8824 19.3618 77.3617 19.595 77.7499 20.0251C78.1343 20.4314 78.3839 20.9923 78.4989 21.7077C78.6291 22.5185 78.2992 23.2153 77.5091 23.7981C76.7431 24.3772 75.641 24.7749 74.2029 24.991Z" fill="#4C6ABB"/>
</svg>
