<svg width="62" height="46" viewBox="0 0 62 46" fill="none" xmlns="http://www.w3.org/2000/svg">
<ellipse cx="17.5119" cy="17.0038" rx="17.5119" ry="17.0038" transform="matrix(0.99856 -0.0536378 0.0569016 0.99838 11.1768 5.41211)" fill="#F0E9FF"/>
<path d="M25.6188 42.8363C24.8541 42.9516 24.2329 42.7824 23.7552 42.3286C23.2754 41.8616 22.8884 41.1312 22.5943 40.1373C22.3002 39.1434 22.0331 37.8961 21.7929 36.3952C21.5526 34.8943 21.4163 33.6204 21.3838 32.5736C21.3512 31.5268 21.4916 30.7168 21.805 30.1437C22.1162 29.5574 22.6542 29.2066 23.4189 29.0912C24.0913 28.9898 24.6392 29.1229 25.0626 29.4905C25.497 29.8429 25.85 30.4032 26.1215 31.1713C26.4061 31.9374 26.6501 32.8714 26.8535 33.9733C27.0776 33.9395 27.3083 33.9047 27.5457 33.8689C27.783 33.8331 28.0203 33.7973 28.2576 33.7615C28.5345 33.7198 28.8048 33.679 29.0684 33.6392C29.3453 33.5974 29.61 33.5643 29.8626 33.5396C29.7099 32.4166 29.6428 31.4491 29.6614 30.6373C29.68 29.8255 29.8336 29.1821 30.1221 28.7071C30.4239 28.2301 30.9109 27.9409 31.5833 27.8394C32.348 27.7241 32.9702 27.8999 33.4501 28.3669C33.9299 28.8338 34.3179 29.5708 34.6141 30.5779C34.9235 31.5829 35.1983 32.8359 35.4385 34.3368C35.6787 35.8377 35.8074 37.106 35.8247 38.1416C35.8551 39.1753 35.7136 39.9787 35.4003 40.5518C35.0869 41.1249 34.5479 41.4692 33.7832 41.5845C32.834 41.7277 32.1226 41.417 31.6492 40.6524C31.1757 39.8879 30.786 38.7601 30.4798 37.2691C30.1787 37.3281 29.8567 37.3834 29.5139 37.4351C29.1711 37.4868 28.8218 37.5395 28.4658 37.5932C28.2944 37.619 28.123 37.6449 27.9516 37.6707C27.7802 37.6966 27.6088 37.7224 27.4374 37.7483C27.6096 39.246 27.5841 40.4364 27.3609 41.3195C27.1487 42.1875 26.568 42.6931 25.6188 42.8363ZM42.2189 40.3525C41.2432 40.4997 40.3549 40.391 39.5539 40.0264C38.764 39.6466 38.1028 39.0587 37.5703 38.2626C37.0489 37.4513 36.6976 36.4796 36.5164 35.3473C36.3394 34.2414 36.3717 33.3466 36.6133 32.6629C36.8682 31.9773 37.3186 31.5857 37.9646 31.4883C38.4261 31.4187 38.7891 31.4515 39.0539 31.5869C39.3317 31.7203 39.5313 31.9126 39.6526 32.164C39.7849 32.4002 39.8742 32.6632 39.9206 32.9528C39.9796 33.3215 40.0133 33.7007 40.0216 34.0904C40.0432 34.4782 40.0888 34.8893 40.1583 35.3238C40.2573 35.9426 40.4553 36.3779 40.7521 36.6298C41.0601 36.8665 41.3657 36.962 41.6689 36.9162C41.9985 36.8665 42.2598 36.6855 42.4529 36.3732C42.657 36.0458 42.7096 35.5727 42.6105 34.9539C42.541 34.5194 42.4591 34.134 42.3647 33.7977C42.2704 33.4613 42.1885 33.0759 42.1189 32.6415C42.0452 32.1807 42.093 31.7622 42.2623 31.3861C42.4295 30.9968 42.8494 30.7514 43.5218 30.65C44.1678 30.5526 44.7128 30.794 45.1567 31.3742C45.6006 31.9545 45.9111 32.7976 46.0881 33.9035C46.2693 35.0357 46.2515 36.0632 46.0346 36.9858C45.8156 37.8953 45.3891 38.6473 44.7551 39.2418C44.1322 39.8212 43.2868 40.1914 42.2189 40.3525ZM53.2457 38.6892C52.2964 38.8324 51.4777 38.821 50.7895 38.6552C50.0993 38.4761 49.5084 38.2012 49.017 37.8304C48.5387 37.4576 48.1399 37.0323 47.8204 36.5546C47.5141 36.075 47.2681 35.593 47.0826 35.1086C46.897 34.6242 46.7584 34.1799 46.6667 33.7757C46.5882 33.3696 46.5332 33.0678 46.5015 32.8703C46.4046 32.2647 46.3364 31.6277 46.297 30.9595C46.2576 30.2913 46.2608 29.6368 46.3068 28.9962C46.3507 28.3423 46.4513 27.7474 46.6085 27.2113C46.7789 26.6732 47.0113 26.2269 47.3056 25.8724C47.6 25.5178 47.9844 25.3048 48.4591 25.2332C48.881 25.1695 49.2854 25.2501 49.6725 25.4749C50.0727 25.6977 50.3192 26.0987 50.4119 26.678C50.5025 27.2441 50.4997 27.8176 50.4037 28.3984C50.3187 28.964 50.2951 29.5339 50.333 30.108C50.6088 29.8911 50.9129 29.7239 51.2451 29.6064C51.5753 29.4756 51.9051 29.3854 52.2347 29.3357C52.9335 29.2303 53.6322 29.2935 54.3309 29.5252C55.0275 29.7437 55.6329 30.1513 56.1469 30.7479C56.6742 31.3426 57.02 32.1534 57.1844 33.1803C57.3129 33.9834 57.245 34.7824 56.9807 35.5774C56.7295 36.3704 56.2848 37.0509 55.6466 37.6191C55.0216 38.1853 54.2213 38.542 53.2457 38.6892ZM52.6276 35.5868C52.9836 35.5331 53.2724 35.3547 53.4939 35.0516C53.7265 34.7334 53.8133 34.3899 53.7543 34.0213C53.6953 33.6526 53.5053 33.351 53.1841 33.1162C52.8762 32.8795 52.5442 32.788 52.1883 32.8417C51.8323 32.8954 51.5446 33.0804 51.3252 33.3967C51.1057 33.7129 51.0255 34.0554 51.0845 34.424C51.1435 34.7926 51.327 35.0953 51.6349 35.332C51.9407 35.5556 52.2716 35.6405 52.6276 35.5868Z" fill="url(#paint0_linear_156_2503)"/>
<path d="M8.86718 27.5996C7.94956 27.738 7.20413 27.5349 6.63089 26.9904C6.05511 26.43 5.59076 25.5535 5.23785 24.3608C4.88494 23.1682 4.56435 21.6713 4.27609 19.8702C3.98782 18.0692 3.82418 16.5405 3.78516 15.2844C3.74614 14.0282 3.91463 13.0562 4.29065 12.3685C4.66413 11.6649 5.30968 11.2439 6.2273 11.1055C7.03418 10.9838 7.69165 11.1435 8.19974 11.5846C8.72111 12.0076 9.14468 12.6799 9.47042 13.6016C9.81199 14.5209 10.1048 15.6417 10.3488 16.964C10.6178 16.9235 10.8947 16.8817 11.1795 16.8387C11.4642 16.7958 11.749 16.7528 12.0338 16.7099C12.366 16.6598 12.6904 16.6108 13.0068 16.5631C13.339 16.513 13.6567 16.4732 13.9598 16.4436C13.7765 15.0959 13.6961 13.935 13.7184 12.9608C13.7407 11.9866 13.925 11.2145 14.2712 10.6445C14.6333 10.0721 15.2178 9.72509 16.0246 9.60338C16.9423 9.46497 17.689 9.67594 18.2647 10.2363C18.8405 10.7967 19.3061 11.6811 19.6616 12.8895C20.0328 14.0956 20.3626 15.5992 20.6508 17.4002C20.9391 19.2013 21.0936 20.7232 21.1142 21.966C21.1507 23.2064 20.981 24.1705 20.605 24.8582C20.229 25.546 19.5821 25.959 18.6645 26.0975C17.5254 26.2693 16.6718 25.8965 16.1037 24.979C15.5355 24.0615 15.0678 22.7082 14.7004 20.919C14.3391 20.9897 13.9527 21.0561 13.5414 21.1181C13.13 21.1802 12.7108 21.2434 12.2836 21.3079C12.0779 21.3389 11.8723 21.3699 11.6666 21.4009C11.4609 21.432 11.2552 21.463 11.0496 21.494C11.2562 23.2912 11.2256 24.7197 10.9577 25.7795C10.7031 26.8211 10.0063 27.4278 8.86718 27.5996ZM29.0009 24.5868C27.8143 24.7658 26.7334 24.6942 25.7583 24.3721C24.7965 24.0318 23.998 23.4969 23.3627 22.7676C22.7408 22.02 22.3451 21.1169 22.1757 20.0584C22.0113 19.0315 22.1048 18.0466 22.4562 17.1036C22.8234 16.1583 23.4004 15.3594 24.1871 14.7067C24.9896 14.0517 25.9604 13.6383 27.0995 13.4665C28.1596 13.3066 29.1034 13.3827 29.9311 13.6947C30.7588 14.0067 31.4235 14.4647 31.9252 15.0685C32.4402 15.6543 32.7559 16.3105 32.8722 17.0372C32.9885 17.764 32.9185 18.3894 32.6621 18.9135C32.4032 19.4218 32.025 19.8429 31.5275 20.1768C31.0434 20.4925 30.507 20.7352 29.9185 20.9049C29.3299 21.0746 28.755 21.1775 28.1936 21.2136C27.6298 21.234 27.1479 21.2096 26.748 21.1405C27.1061 21.5557 27.5126 21.818 27.9676 21.9273C28.4359 22.0185 28.9061 22.0204 29.3782 21.933C29.8636 21.8274 30.2977 21.7053 30.6806 21.5666C31.1533 21.3821 31.5606 21.3449 31.9023 21.4552C32.244 21.5654 32.4506 21.7931 32.522 22.1383C32.5833 22.4203 32.526 22.7202 32.35 23.038C32.1899 23.3534 31.8494 23.6556 31.3285 23.9445C30.8051 24.2176 30.0292 24.4317 29.0009 24.5868ZM26.3564 18.2385C26.5551 18.4674 26.8136 18.6145 27.1319 18.6798C27.4477 18.7292 27.7533 18.7155 28.0489 18.6385C28.3602 18.5592 28.6074 18.4329 28.7903 18.2597C28.989 18.0841 29.0681 17.8699 29.0277 17.6172C28.9847 17.3486 28.836 17.1283 28.5817 16.9563C28.3406 16.7662 27.9906 16.7057 27.5318 16.7749C27.0888 16.8417 26.7715 17.0352 26.5796 17.3554C26.3853 17.6598 26.3109 17.9541 26.3564 18.2385ZM38.8313 23.104C38.0561 23.2209 37.3252 23.2098 36.6386 23.0707C35.9678 22.9292 35.4046 22.6501 34.9491 22.2334C34.491 21.8009 34.2025 21.2134 34.0837 20.4708C33.9825 19.8388 34.0864 19.273 34.3953 18.7734C34.7042 18.2738 35.1561 17.8577 35.751 17.5253C36.3617 17.1904 37.0547 16.9646 37.83 16.8476C38.2888 16.7784 38.7143 16.7547 39.1067 16.7764C39.4965 16.7823 39.7702 16.8219 39.9278 16.8952C39.8696 16.5319 39.6687 16.2386 39.3252 16.0153C38.979 15.7763 38.4342 15.7128 37.6906 15.825C37.3425 15.8775 37.0707 15.9509 36.8752 16.0451C36.6929 16.1211 36.529 16.2106 36.3834 16.3134C36.2378 16.4163 36.0673 16.5148 35.8717 16.609C35.6895 16.6851 35.4322 16.7482 35.1 16.7983C34.6095 16.8723 34.1938 16.8055 33.8527 16.5981C33.5249 16.3725 33.3181 15.9911 33.2321 15.4539C33.1537 14.9641 33.2212 14.5252 33.4345 14.137C33.6611 13.7307 33.977 13.3756 34.382 13.0718C34.7871 12.768 35.2339 12.5226 35.7225 12.3357C36.2269 12.1463 36.7164 12.0159 37.191 11.9443C38.5991 11.7319 39.7878 11.8195 40.7572 12.2073C41.7241 12.5792 42.4869 13.1437 43.0456 13.9008C43.6042 14.6579 43.9607 15.5183 44.1149 16.4821C44.2009 17.0192 44.2331 17.5241 44.2115 17.9965C44.2057 18.4666 44.1519 18.8388 44.0499 19.1131C44.3018 19.2693 44.5033 19.4654 44.6545 19.7015C44.8215 19.9352 44.9265 20.1863 44.9695 20.4549C45.0403 20.8972 44.9532 21.3149 44.7083 21.7078C44.4766 22.0825 44.0918 22.3105 43.5539 22.3916C43.1425 22.4537 42.8081 22.4394 42.5505 22.3488C42.293 22.2582 42.0291 22.1281 41.7589 21.9585C41.4146 22.237 41.0232 22.474 40.5846 22.6696C40.1435 22.8494 39.5591 22.9942 38.8313 23.104ZM38.9228 20.6389C39.2867 20.584 39.5443 20.4723 39.6956 20.3039C39.8601 20.1172 39.9273 19.9291 39.8969 19.7395C39.8666 19.55 39.7451 19.3984 39.5325 19.2848C39.3332 19.1531 39.0516 19.1147 38.6877 19.1696C38.3396 19.2221 38.0833 19.3416 37.9187 19.5283C37.7516 19.6991 37.6833 19.8793 37.7136 20.0689C37.744 20.2585 37.8667 20.4179 38.0818 20.5473C38.2944 20.6608 38.5748 20.6914 38.9228 20.6389ZM52.7608 21.0028C52.207 21.0864 51.6277 21.0605 51.0227 20.9252C50.4178 20.7899 49.8518 20.5436 49.3247 20.1863C48.8134 19.8265 48.4069 19.362 48.1051 18.7926C47.8995 18.4191 47.7183 17.9449 47.5615 17.3699C47.4046 16.7949 47.2573 16.178 47.1194 15.5192C46.9974 14.858 46.8858 14.2114 46.7847 13.5795C46.1651 13.6568 45.563 13.691 44.9783 13.6821C44.4094 13.6708 43.9227 13.5662 43.5184 13.3683C43.1274 13.1523 42.8914 12.7914 42.8105 12.2859C42.7118 11.6697 42.8046 11.1865 43.0888 10.8362C43.3705 10.4701 43.7806 10.1979 44.3192 10.0196C44.871 9.82306 45.4779 9.66679 46.1399 9.55076C46.0773 9.05861 46.0372 8.55498 46.0196 8.03986C46.0153 7.50657 46.0647 7.00561 46.1679 6.53699C46.2712 6.06837 46.4595 5.6759 46.7329 5.35959C47.0038 5.02748 47.3924 4.82324 47.8987 4.74687C48.579 4.64425 49.1036 4.78356 49.4725 5.16478C49.8571 5.54363 50.1434 6.06676 50.3312 6.73418C50.5191 7.4016 50.6645 8.10778 50.7675 8.85272C51.5877 8.71282 52.3205 8.63464 52.966 8.61817C53.6115 8.60171 54.1377 8.70032 54.5445 8.91402C54.9514 9.12771 55.2016 9.52683 55.2952 10.1114C55.3913 10.7118 55.2577 11.193 54.8944 11.5553C54.5311 11.9175 54.026 12.204 53.3792 12.4149C52.7299 12.6099 52.0347 12.7714 51.2937 12.8993C51.3417 13.1995 51.3844 13.5167 51.4217 13.8509C51.4722 14.1668 51.5241 14.4907 51.5772 14.8225C51.7213 15.723 51.887 16.3533 52.0743 16.7134C52.2147 16.9835 52.3703 17.1461 52.5412 17.2012C52.7279 17.254 52.949 17.2691 53.2047 17.2467C53.4578 17.2086 53.7739 17.2094 54.153 17.2493C54.5295 17.2734 54.8459 17.428 55.1022 17.7129C55.3559 17.9821 55.5207 18.3536 55.5965 18.8276C55.6825 19.3648 55.4647 19.8264 54.9432 20.2125C54.4375 20.5962 53.71 20.8596 52.7608 21.0028Z" fill="#6377CC"/>
<defs>
<linearGradient id="paint0_linear_156_2503" x1="27.0553" y1="5.22276" x2="32.7278" y2="42.8282" gradientUnits="userSpaceOnUse">
<stop stop-color="#B094FF"/>
<stop offset="1" stop-color="#FA8BAE" stop-opacity="0.8"/>
</linearGradient>
</defs>
</svg>
