<svg width="130" height="130" viewBox="0 0 130 130" fill="none" xmlns="http://www.w3.org/2000/svg">
<circle cx="65.3445" cy="64.75" r="51.75" fill="#E2E8F0"/>
<path d="M33.7319 52.771L69.3653 47.6467C72.6132 47.1796 75.6912 49.4837 76.1583 52.7316L80.0015 79.4566C80.4819 82.7973 78.1644 85.7825 74.9166 86.2496L62.018 88.1045L51.7524 98.3891C51.3418 98.827 50.7851 98.9071 50.2016 98.8016C49.6976 98.5899 49.3525 98.166 49.2591 97.5164L48.1915 90.0928L39.2832 91.3738C35.9425 91.8542 32.9706 89.6296 32.4902 86.289L28.647 59.5639C28.18 56.3161 30.3912 53.2514 33.7319 52.771Z" fill="#94A3B8"/>
<path d="M81.573 32.7431L96.5621 32.1709C97.9283 32.1187 99.1035 33.2075 99.1557 34.5737L99.5849 45.8155C99.6385 47.2207 98.5483 48.3569 97.1821 48.409L91.7563 48.6162L87.0547 52.4311C86.8655 52.5947 86.6313 52.6037 86.3941 52.5345C86.1945 52.4249 86.0699 52.2342 86.0595 51.961L85.9403 48.8382L82.193 48.9813C80.7878 49.0349 79.6531 47.9837 79.5994 46.5785L79.1702 35.3367C79.1181 33.9705 80.1678 32.7968 81.573 32.7431Z" fill="#CBD5E1"/>
<rect x="114.344" y="36.9316" width="12" height="4" rx="2" transform="rotate(-40.4328 114.344 36.9316)" fill="#CBD5E1"/>
<rect x="118.588" y="41.21" width="8" height="4" rx="2" transform="rotate(-0.932215 118.588 41.21)" fill="#CBD5E1"/>
<rect width="16" height="4" rx="2" transform="matrix(-0.811117 -0.584884 -0.584884 0.811117 17.3174 33.5186)" fill="#CBD5E1"/>
<rect width="8" height="4" rx="2" transform="matrix(-0.997447 -0.0714137 -0.0714137 0.997447 13.2361 39.4795)" fill="#CBD5E1"/>
<rect width="8" height="4" rx="2" transform="matrix(-0.473935 -0.88056 -0.88056 0.473935 21.5352 28.0156)" fill="#CBD5E1"/>
</svg>
