<svg width="130" height="130" viewBox="0 0 130 130" fill="none" xmlns="http://www.w3.org/2000/svg">
<circle cx="65.3445" cy="64.75" r="51.75" fill="#E2E8F0"/>
<path d="M45.0978 46.8864C44.8709 45.3088 45.9699 43.7301 47.6402 43.4899C49.2178 43.263 50.8099 44.4548 51.0367 46.0323L51.4637 49.0018L63.3415 47.2937L62.9145 44.3242C62.6877 42.7467 63.7866 41.168 65.457 40.9278C67.0345 40.7009 68.6266 41.8927 68.8534 43.4702L69.2805 46.4396L73.7346 45.7991C76.1473 45.4522 78.4824 47.2001 78.8293 49.6128L79.4699 54.0669L37.8975 60.0452L37.257 55.5911C36.91 53.1784 38.5652 50.8567 41.0706 50.4964L45.5248 49.8558L45.0978 46.8864ZM79.8969 57.0364L83.5266 82.2767C83.8869 84.7822 82.1256 87.0245 79.7129 87.3715L47.049 92.0687C44.5435 92.429 42.3145 90.7605 41.9542 88.255L38.3246 63.0147L79.8969 57.0364Z" fill="#94A3B8"/>
<path d="M86.9852 34.3376C89.0245 33.7132 91.2432 34.2349 92.8162 35.6897C94.396 37.1669 95.0617 39.3407 94.5729 41.4267C94.091 43.5352 92.5379 45.1873 90.4985 45.8118C88.4367 46.4431 86.2249 45.9438 84.645 44.4666C83.0721 43.0118 82.4064 40.838 82.8884 38.7295C83.3771 36.6435 84.9234 34.9689 86.9852 34.3376ZM87.2707 37.1916L88.204 40.2394C88.2589 40.4187 88.4034 40.5705 88.5653 40.619L91.1559 41.3945C91.4573 41.4983 91.7729 41.3281 91.8767 41.0267C91.9581 40.7322 91.7879 40.4166 91.4865 40.3128L89.1973 39.6411L88.3464 36.8622C88.2572 36.5709 87.9352 36.3998 87.6439 36.489C87.3302 36.5851 87.1815 36.9002 87.2707 37.1916Z" fill="#CBD5E1"/>
<rect x="114.344" y="36.9316" width="12" height="4" rx="2" transform="rotate(-40.4328 114.344 36.9316)" fill="#CBD5E1"/>
<rect x="118.588" y="41.21" width="8" height="4" rx="2" transform="rotate(-0.932215 118.588 41.21)" fill="#CBD5E1"/>
<rect width="16" height="4" rx="2" transform="matrix(-0.811117 -0.584884 -0.584884 0.811117 17.3174 33.5186)" fill="#CBD5E1"/>
<rect width="8" height="4" rx="2" transform="matrix(-0.997447 -0.0714137 -0.0714137 0.997447 13.2361 39.4795)" fill="#CBD5E1"/>
<rect width="8" height="4" rx="2" transform="matrix(-0.473935 -0.88056 -0.88056 0.473935 21.5352 28.0156)" fill="#CBD5E1"/>
</svg>
