<svg width="131" height="130" viewBox="0 0 131 130" fill="none" xmlns="http://www.w3.org/2000/svg">
<circle cx="65.8447" cy="64.75" r="51.75" fill="#E2E8F0"/>
<path d="M62.6936 62.9799L76.2436 63.0204C77.3838 63.0458 78.4185 63.6547 78.9498 64.7149C79.4678 65.6823 79.3629 66.9286 78.6345 67.7911L70.3582 78.7369L74.6264 91.9514C74.9721 93.0382 74.6683 94.2185 73.8337 95.0015C73.0125 95.8773 71.8062 96.0508 70.7187 95.7336L57.9201 91.0388L46.8703 99.1631C46.0091 99.7605 44.7099 99.9474 43.768 99.3251C42.7467 98.809 42.1225 97.7622 42.148 96.6219L42.4268 82.7535L31.4016 74.5834C30.4597 73.9612 30.0078 72.7948 30.2322 71.7207C30.4433 70.5538 31.2645 69.678 32.3513 69.3323L45.4336 65.462L49.5977 52.2661C49.9149 51.1787 50.8423 50.3823 52.0486 50.2088C53.1621 50.0487 54.2763 50.5515 54.8871 51.5055L62.6936 62.9799Z" fill="#94A3B8"/>
<path d="M79.9562 42.8302C79.7461 37.3264 84.0246 32.6676 89.5675 32.456C95.0713 32.2459 99.7316 36.5634 99.9417 42.0672C100.153 47.6101 95.8343 52.2313 90.3305 52.4415C84.7876 52.6531 80.1679 48.3731 79.9562 42.8302ZM86.4621 45.3182C86.2175 45.0539 85.8272 45.0688 85.5614 45.2744C85.2971 45.5191 85.312 45.9094 85.5176 46.1752C86.4541 47.1558 87.9777 48.1531 90.1245 48.0711C92.3104 47.9877 93.7535 46.8771 94.6125 45.828C94.7973 45.5473 94.7824 45.1569 94.5002 44.9332C94.2195 44.7484 93.8292 44.7633 93.6054 45.0455C92.9341 45.8921 91.7943 46.7565 90.0768 46.822C88.3984 46.8861 87.1961 46.1111 86.4621 45.3182ZM86.707 39.4452C86.0044 39.4721 85.4803 40.0784 85.5056 40.742C85.5324 41.4446 86.0998 41.9702 86.8024 41.9434C87.505 41.9166 88.0306 41.3493 88.0038 40.6466C87.9785 39.9831 87.4096 39.4184 86.707 39.4452ZM93.0478 41.705C93.7505 41.6782 94.2761 41.1108 94.2492 40.4082C94.2239 39.7446 93.6551 39.18 92.9525 39.2068C92.2499 39.2336 91.7257 39.84 91.7511 40.5036C91.7779 41.2062 92.3452 41.7318 93.0478 41.705Z" fill="#CBD5E1"/>
<rect x="114.845" y="36.9316" width="12" height="4" rx="2" transform="rotate(-40.4328 114.845 36.9316)" fill="#CBD5E1"/>
<rect x="119.089" y="41.2109" width="8" height="4" rx="2" transform="rotate(-0.932215 119.089 41.2109)" fill="#CBD5E1"/>
<rect width="16" height="4" rx="2" transform="matrix(-0.811117 -0.584884 -0.584884 0.811117 17.8174 33.5195)" fill="#CBD5E1"/>
<rect width="8" height="4" rx="2" transform="matrix(-0.997447 -0.0714137 -0.0714137 0.997447 13.7363 39.4785)" fill="#CBD5E1"/>
<rect width="8" height="4" rx="2" transform="matrix(-0.473935 -0.88056 -0.88056 0.473935 22.0352 28.0156)" fill="#CBD5E1"/>
</svg>
